<svg width="600" height="600" xmlns="http://www.w3.org/2000/svg">
 <g>
  <title>Layer 1</title>
  <g stroke="null" id="svg_1">
   <metadata stroke="null"/>
   <g stroke="null" id="svg_2" transform="translate(0 800) scale(0.1 -0.1)" fill="#000000">
    <path stroke="null" id="svg_3" d="m4004.03094,7181.04577c-40.98052,-15.80752 -55.37908,-54.19719 -55.37908,-155.81694c0,-238.24184 68.67006,-619.88042 159.49176,-888.60818c114.08091,-340.99069 265.8196,-549.87571 470.7222,-649.23723l99.68235,-48.55165l1.10758,-92.58687c0,-109.5235 12.1834,-105.00707 -157.2766,-71.13382c-203.79502,39.51879 -437.49475,68.8756 -834.00899,101.61974c-78.6383,6.77465 -412.02038,16.93662 -739.86455,21.45306c-327.84417,5.64554 -598.0941,12.42019 -601.41684,15.80752c-3.32274,3.38732 19.93647,48.55165 53.16392,100.49063c139.55529,217.91789 197.14954,435.83578 182.75097,686.4978c-44.30327,732.79124 -794.13605,1149.43218 -1422.13485,789.24665c-172.78274,-99.36152 -345.56548,-312.76298 -404.2673,-497.93673c-31.01229,-99.36152 -31.01229,-99.36152 -86.39137,-121.94369c-27.68954,-10.16197 -169.45999,-65.48828 -315.66077,-123.0728c-320.0911,-124.20191 -315.66077,-121.94369 -333.38208,-165.97891c-25.47438,-62.10095 23.25921,-206.62681 103.00509,-307.11744c127.37189,-159.20426 414.23554,-252.92024 773.092,-252.92024c114.08091,0 168.35241,-3.38732 173.89032,-12.42019c13.29098,-21.45306 9.96823,-92.58687 -4.43033,-111.78171c-7.75307,-9.03287 -44.30327,-39.51879 -80.85346,-67.74649c-407.59005,-313.89209 -500.62691,-921.35231 -225.94666,-1465.58248c78.6383,-154.68783 150.63111,-257.43668 264.71202,-373.73482c237.02247,-243.88738 548.25292,-407.60807 919.29278,-485.51654c112.97333,-23.71127 157.2766,-27.0986 393.19149,-27.0986c249.20587,0 275.78783,2.25822 412.02038,31.61503c181.64339,38.38968 289.07881,73.39203 420.88103,137.7512c450.78573,216.78878 776.41474,623.26774 872.77435,1087.33122c16.61372,76.77936 24.3668,93.71598 43.19568,98.23242c13.29098,3.38732 96.3596,21.45306 186.07372,39.51879c153.95385,32.74414 346.67306,80.16668 388.76116,95.9742c17.72131,7.90376 18.82889,-35.00236 18.82889,-785.85933c0,-736.17857 2.21516,-797.15041 19.93647,-818.60347c9.96823,-13.5493 29.9047,-30.48592 43.19568,-37.26057c29.9047,-15.80752 410.91279,-16.93662 450.78573,-1.12911c65.34732,24.84038 62.02457,-39.51879 62.02457,1349.28433c0,1200.24205 1.10758,1271.37587 19.93647,1277.02141c62.02457,18.06573 182.75097,91.45777 235.91489,142.26764c251.42104,245.01649 409.80521,706.82175 465.1843,1358.3172c13.29098,146.78407 12.1834,160.33337 -5.53791,189.69018c-11.07582,16.93662 -31.01229,33.87325 -44.30327,36.13146c-35.44261,9.03287 -1899.50254,12.42019 -1922.76176,3.38732zm1788.74438,-265.34043c-43.19568,-502.45316 -190.50405,-956.35467 -375.47018,-1153.94861c-42.0881,-45.16433 -132.9098,-114.03993 -151.73869,-114.03993c-4.43033,0 -9.96823,125.33101 -12.1834,280.01884c-3.32274,317.27941 -9.96823,344.37801 -95.25202,422.28648c-152.84627,141.13853 -412.02038,67.74649 -466.29188,-132.10566c-6.64549,-27.0986 -12.1834,-150.17139 -12.1834,-308.24655l0,-263.08222l-24.3668,6.77465c-46.51843,14.67841 -135.12496,92.58687 -191.61163,168.23713c-116.29607,155.81694 -238.13006,487.77475 -289.07881,789.24665c-21.04405,124.20191 -47.62601,371.47661 -40.98052,383.8968c2.21516,4.51643 378.79293,7.90376 836.22415,7.90376l830.68624,0l-7.75307,-86.94133zm-3992.83188,2.25822c252.52862,-54.19719 468.50704,-247.2747 557.11357,-497.93673c114.08091,-324.05406 22.15163,-701.17621 -234.80731,-960.8711c-83.06862,-84.68312 -90.8217,-105.00707 -62.02457,-160.33337c29.9047,-60.97184 141.77045,-76.77936 542.71501,-79.03758c938.12166,-4.51643 1529.57027,-49.68076 2060.10188,-158.07515c276.89541,-56.45541 333.38208,-74.52114 373.25502,-114.03993c63.13215,-64.35917 33.22745,-119.68547 -95.25202,-180.65732c-342.24273,-163.72069 -1028.94336,-300.34279 -1568.33563,-312.76298l-271.35751,-6.77465l-31.01229,-32.74414c-26.58196,-27.0986 -29.9047,-37.26057 -24.3668,-68.8756c4.43033,-19.19484 16.61372,-45.16433 26.58196,-57.58452c16.61372,-19.19484 35.44261,-20.32395 338.91999,-14.67841c177.21307,3.38732 348.88822,11.29108 382.11567,18.06573c33.22745,6.77465 63.13215,7.90376 67.56248,3.38732c11.07582,-12.42019 -31.01229,-167.10802 -71.99281,-264.21133c-119.61882,-282.27706 -353.31855,-534.06819 -636.85945,-685.36869c-537.1771,-285.66438 -1288.11747,-248.40381 -1778.77614,89.19955c-168.35241,115.16904 -345.56548,311.63387 -444.14024,492.29119c-121.83398,222.43432 -174.9979,526.16443 -130.69464,747.46965c46.51843,234.85451 167.24483,422.28648 349.9958,541.97195c55.37908,36.13146 67.56248,50.80987 87.49895,103.87796c36.55019,97.10331 37.65778,142.26764 6.64549,237.11273c-15.50614,47.42255 -33.22745,123.0728 -39.87294,169.36623c-25.47438,184.04464 -94.14444,329.6996 -240.34522,510.35692l-70.88523,86.94133l23.25921,71.13382c13.29098,39.51879 34.33503,91.45777 46.51843,116.29815c150.63111,308.24655 501.73449,478.74189 838.43931,406.47896zm3206.4489,-687.62691c67.56248,-29.35681 66.4549,-19.19484 63.13215,-565.68322c-2.21516,-273.24419 -5.53791,-499.06584 -7.75307,-500.19495c-2.21516,-2.25822 -48.73359,7.90376 -104.11268,21.45306l-100.78993,27.0986l0,451.64329c0,282.27706 4.43033,467.45081 12.1834,494.5494c7.75307,29.35681 23.25921,49.68076 46.51843,64.35917c42.0881,27.0986 43.19568,27.0986 90.8217,6.77465zm-4164.50703,-138.88031c45.41085,-60.97184 97.46719,-138.88031 116.29607,-173.88267c34.33503,-66.61739 69.77764,-187.43197 59.80941,-203.23948c-8.86065,-15.80752 -232.59215,-11.29108 -351.10339,6.77465c-134.01738,20.32395 -262.49685,63.23006 -332.2745,110.65261c-49.84117,33.87325 -118.51124,119.68547 -118.51124,147.91318c0,6.77465 50.94876,32.74414 114.08091,56.45541c62.02457,24.84038 178.32065,71.13382 256.95894,103.87796c79.74588,32.74414 150.63111,59.84274 157.2766,59.84274c7.75307,1.12911 50.94876,-48.55165 97.46719,-108.39439zm4234.28468,-2285.31506l-3.32274,-794.89219l-107.43542,-3.38732l-108.543,-3.38732l0,761.01895l0,761.01895l103.00509,45.16433c55.37908,23.71127 105.22026,41.777 110.75817,37.26057c4.43033,-3.38732 6.64549,-364.70196 5.53791,-802.79595z"/>
    <path stroke="null" id="svg_4" d="m1355.8032,6462.93294c-75.31555,-68.8756 -45.41085,-208.88502 48.73359,-232.5963c121.83398,-31.61503 213.76326,84.68312 157.2766,196.46483c-36.55019,72.26293 -145.0932,91.45777 -206.01019,36.13146z"/>
   </g>
  </g>
 </g>

</svg>