<?xml version="1.0" encoding="UTF-8"?>
<svg version="1.1" xmlns="http://www.w3.org/2000/svg" width="256" height="256" role="img" aria-labelledby="logo-title">
<title id="logo-title">MVTT — My Virtual Tech Team</title>
<path d="M0 0 C3.49428802 2.50454952 6.76055646 5.17722401 10 8 C10.6703125 8.52722656 11.340625 9.05445312 12.03125 9.59765625 C30.68158228 24.65853966 40.13574269 49.05626584 47.125 71.26171875 C47.89916989 73.92646191 47.89916989 73.92646191 49 76 C49.99 76 50.98 76 52 76 C52.52571359 74.44225031 53.05092887 72.8843311 53.57397461 71.32568359 C54.02839597 69.97243024 54.48497465 68.61989959 54.94360352 67.26806641 C56.43331758 62.83784047 57.71255754 58.38712981 58.9375 53.875 C60.61782219 48.37515026 62.01149941 45.89333034 67 43 C74.719265 39.96665502 83.88215472 39.47919583 91.75 42.375 C93.52376206 43.20076822 95.26935728 44.08731125 97 45 C97.71365723 45.37044434 98.42731445 45.74088867 99.16259766 46.12255859 C101.6398582 47.41693348 104.10336439 48.73402905 106.5625 50.0625 C107.37364258 50.49804199 108.18478516 50.93358398 109.02050781 51.38232422 C110.15697754 52.01485107 110.15697754 52.01485107 111.31640625 52.66015625 C112.00162354 53.03793213 112.68684082 53.41570801 113.39282227 53.80493164 C115 55 115 55 116 58 C115 59 115 59 112.75024414 59.05004883 C111.77176514 59.01935303 110.79328613 58.98865723 109.78515625 58.95703125 C108.70556641 58.93576172 107.62597656 58.91449219 106.51367188 58.89257812 C104.24772156 58.8400009 101.98201389 58.77528536 99.71679688 58.69726562 C89.59126932 58.5357835 81.29133206 60.72733859 73.81640625 67.83984375 C65.81150492 77.35965114 62.21941743 91.07133872 62.72265625 103.390625 C64.18961506 117.19243463 68.30375821 130.60817794 79 140 C79 140.66 79 141.32 79 142 C69.65506627 140.29695133 59.69070972 131.94646987 54.1171875 124.4765625 C43.44622913 108.01650121 35.75075034 89.41927893 29.625 70.83984375 C19.9832094 41.90453195 3.38815235 21.1584628 -23 6 C-23.60150879 5.6484082 -24.20301758 5.29681641 -24.82275391 4.93457031 C-41.11085022 -4.51370093 -58.82979762 -11.20441608 -77 -16 C-77 -16.66 -77 -17.32 -77 -18 C-50.27671399 -23.90890427 -22.30131305 -14.51486029 0 0 Z " fill="#FDCA05" transform="translate(77,106)"/>
<path d="M0 0 C11.96662884 1.99443814 22.29490507 10.20480951 30.0234375 19.2265625 C34.16711783 25.0408175 37.04239805 31.52660081 40 38 C40.46277344 38.96550781 40.92554688 39.93101563 41.40234375 40.92578125 C44.27346994 47.2642739 46.02020129 53.72372239 47.75 60.4375 C56.83377421 95.24326177 75.7880504 119.99737025 106.46484375 138.38671875 C123.83422412 148.52243767 141.36487645 157.25761847 161 162 C161 162.66 161 163.32 161 164 C129.07561198 165.10366002 101.47653224 155.18870726 76 136 C75.08089844 135.32582031 74.16179687 134.65164062 73.21484375 133.95703125 C68.62824817 130.51885682 68.62824817 130.51885682 67 129 C67 128.34 67 127.68 67 127 C66.41863281 126.75121094 65.83726562 126.50242187 65.23828125 126.24609375 C45.61211191 115.31983194 36.8872328 81.36927942 30 62 C28.04704914 62.06539364 28.04704914 62.06539364 26 63 C24.65225133 65.48695658 24.65225133 65.48695658 23.74609375 68.609375 C23.36646484 69.75664063 22.98683594 70.90390625 22.59570312 72.0859375 C22.21349609 73.29507813 21.83128906 74.50421875 21.4375 75.75 C20.67049032 78.12145563 19.89852698 80.49131604 19.12109375 82.859375 C18.7852124 83.91608398 18.44933105 84.97279297 18.10327148 86.06152344 C16.71789886 89.75135414 15.41007492 93.07499085 12.046875 95.28125 C-1.59008801 100.0698019 -20.86733184 87.67299771 -33 82 C-34.33554311 81.33777133 -35.66947641 80.6722568 -37 80 C-37 79.34 -37 78.68 -37 78 C-36.14019531 78.0721875 -35.28039063 78.144375 -34.39453125 78.21875 C-30.59802348 78.51684003 -26.80101049 78.76643939 -23 79 C-21.85402344 79.07992187 -20.70804688 79.15984375 -19.52734375 79.2421875 C-11.02652887 79.58667821 -4.84132455 78.09064726 1.73828125 72.53125 C8.45194294 65.45328109 11.99229458 56.04515755 14.375 46.75 C14.54273926 46.1010376 14.71047852 45.4520752 14.88330078 44.78344727 C17.50725699 33.62951043 15.68261949 22.87370094 9.6875 13.125 C6.82762739 8.90820911 3.67958034 5.50008861 0 2 C0 1.34 0 0.68 0 0 Z " fill="#FDC704" transform="translate(95,9)"/>
<path d="M0 0 C16.45777622 7.32683997 25.90087955 30.21984789 32 46 C37 59.30558859 37 59.30558859 37 65 C36.01 65 35.02 65 34 65 C32.45703125 63.05859375 32.45703125 63.05859375 30.8125 60.4375 C24.11263957 50.54856196 17.00878373 46.09569893 5.4140625 43.3984375 C-14.41283407 40.36188577 -34.15524419 53.59230388 -49.35302734 64.68505859 C-50.97196655 65.97761812 -52.39579362 67.34125959 -53.83203125 68.83203125 C-54.54746094 69.54746094 -55.26289062 70.26289063 -56 71 C-56.66 71 -57.32 71 -58 71 C-55.79949941 56.88644451 -43.92185865 43.45311235 -33 35 C-24.75378113 29.1033262 -15.93593633 24.97707602 -6.62744141 21.05664062 C-5.79776855 20.70150391 -4.9680957 20.34636719 -4.11328125 19.98046875 C-3.36860596 19.67004639 -2.62393066 19.35962402 -1.85668945 19.03979492 C0.32756946 18.0014787 0.32756946 18.0014787 2 15 C2.06239653 12.90676221 2.06239653 12.90676221 1.6875 10.6875 C1.57921875 9.89859375 1.4709375 9.1096875 1.359375 8.296875 C0.71064924 4.14329284 0.71064924 4.14329284 0 0 Z " fill="#FCBA04" transform="translate(66,126)"/>
<path d="M0 0 C-1.81323894 12.36098254 -13.20930831 23.71895421 -22.87890625 31.02734375 C-30.16974092 36.28660637 -37.57684684 40.78692966 -46 44 C-46.66692871 44.25652344 -47.33385742 44.51304688 -48.02099609 44.77734375 C-52.66594236 46.5593607 -57.32674702 48.29370562 -62 50 C-61.38273804 55.67355671 -60.72054048 61.33861055 -60 67 C-68.56185361 63.49915319 -73.68887526 52.72544909 -78 45 C-78.62777344 43.92363281 -79.25554687 42.84726563 -79.90234375 41.73828125 C-83.97976927 34.58725588 -87.19467897 27.3267713 -89.9375 19.5625 C-90.23197021 18.73443848 -90.52644043 17.90637695 -90.82983398 17.05322266 C-92.53943809 12.01422927 -93.51924458 7.30048067 -94 2 C-90.25593027 3.48443293 -88.68462761 5.50669314 -86.375 8.75 C-80.1935489 16.68286225 -71.90287554 21.27275427 -62 23 C-40.73057339 24.95331469 -20.39143076 15.06921733 -4.296875 1.765625 C-2 0 -2 0 0 0 Z " fill="#FDD705" transform="translate(243,63)"/>
<path d="M0 0 C0.71365723 0.37044434 1.42731445 0.74088867 2.16259766 1.12255859 C4.6398582 2.41693348 7.10336439 3.73402905 9.5625 5.0625 C10.37364258 5.49804199 11.18478516 5.93358398 12.02050781 6.38232422 C12.7781543 6.80400879 13.53580078 7.22569336 14.31640625 7.66015625 C15.00162354 8.03793213 15.68684082 8.41570801 16.39282227 8.80493164 C18 10 18 10 19 13 C18 14 18 14 15.59155273 14.02172852 C14.02836304 13.95103149 14.02836304 13.95103149 12.43359375 13.87890625 C11.30888672 13.83056641 10.18417969 13.78222656 9.02539062 13.73242188 C7.24938477 13.64831055 7.24938477 13.64831055 5.4375 13.5625 C3.65569336 13.48418945 3.65569336 13.48418945 1.83789062 13.40429688 C-1.10831066 13.2741434 -4.05421276 13.1391636 -7 13 C-6.01 12.67 -5.02 12.34 -4 12 C-4 11.34 -4 10.68 -4 10 C-4.53625 9.87625 -5.0725 9.7525 -5.625 9.625 C-8.4638286 8.87793984 -11.22223202 7.94696636 -14 7 C-14 6.34 -14 5.68 -14 5 C-22.185766 5.3376774 -29.35526412 5.96846681 -37 9 C-36.80546664 4.81753267 -36.29067582 3.29743572 -33.3125 0.25 C-23.97211402 -7.30287276 -9.85311743 -5.19623683 0 0 Z " fill="#FBEE88" transform="translate(174,151)"/>
<path d="M0 0 C9.00261467 0.63436715 18.0024385 1.29753257 27 2 C27 2.66 27 3.32 27 4 C27.66 4 28.32 4 29 4 C29 4.66 29 5.32 29 6 C30.258125 6.144375 31.51625 6.28875 32.8125 6.4375 C35.42667123 6.73748686 37.47439892 7.15813297 40 8 C40 8.66 40 9.32 40 10 C44.62 9.67 49.24 9.34 54 9 C52 15 52 15 49.9375 16.875 C37.61107574 21.59575823 23.4312473 12.70479604 12.25 7.75 C8.126959 5.90611228 4.03175115 4.03707183 0 2 C0 1.34 0 0.68 0 0 Z " fill="#FBCF41" transform="translate(58,87)"/>
<path d="M0 0 C1.08539063 -0.02449219 2.17078125 -0.04898438 3.2890625 -0.07421875 C9.67269894 -0.09763062 13.35460071 0.2013583 18.25 4.375 C19.3225 4.91125 20.395 5.4475 21.5 6 C24.25 7.375 24.25 7.375 26.25 9.375 C26.25 10.365 26.25 11.355 26.25 12.375 C22.62 12.375 18.99 12.375 15.25 12.375 C16.24 12.045 17.23 11.715 18.25 11.375 C18.25 10.715 18.25 10.055 18.25 9.375 C17.71375 9.25125 17.1775 9.1275 16.625 9 C13.7861714 8.25293984 11.02776798 7.32196636 8.25 6.375 C8.25 5.715 8.25 5.055 8.25 4.375 C0.064234 4.7126774 -7.10526412 5.34346681 -14.75 8.375 C-13.47360087 -1.4107267 -8.61283885 0.01008529 0 0 Z " fill="#FCE95F" transform="translate(151.75,151.625)"/>
<path d="M0 0 C7.68897931 0.51405694 15.34855794 1.0765501 23 2 C23 2.33 23 2.66 23 3 C21.35 3 19.7 3 18 3 C18 3.66 18 4.32 18 5 C19.32 5.33 20.64 5.66 22 6 C22 6.66 22 7.32 22 8 C24.97 8.66 27.94 9.32 31 10 C31 10.66 31 11.32 31 12 C31.94875 12.309375 32.8975 12.61875 33.875 12.9375 C37 14 37 14 39 15 C40.53668865 15.22467831 42.07968054 15.40796805 43.625 15.5625 C44.44226563 15.64628906 45.25953125 15.73007813 46.1015625 15.81640625 C46.72804687 15.87699219 47.35453125 15.93757813 48 16 C47.67 16.66 47.34 17.32 47 18 C31.49582315 19.66116181 13.53817303 8.84026119 0 2 C0 1.34 0 0.68 0 0 Z " fill="#FBE57D" transform="translate(58,87)"/>
<path d="M0 0 C0 0.66 0 1.32 0 2 C-2.64 2.99 -5.28 3.98 -8 5 C-7.37946171 10.67349291 -6.72057218 16.33836143 -6 22 C-13.12354381 19.13786186 -18.21226457 10.4707147 -22 4 C-22 3.01 -22 2.02 -22 1 C-21.01 1 -20.02 1 -19 1 C-18.67 1.66 -18.34 2.32 -18 3 C-17.01 3 -16.02 3 -15 3 C-15 3.66 -15 4.32 -15 5 C-13.35 5.33 -11.7 5.66 -10 6 C-9.67 5.01 -9.34 4.02 -9 3 C-2.88888889 0 -2.88888889 0 0 0 Z " fill="#F9DA23" transform="translate(189,108)"/>
<path d="M0 0 C0.66 0 1.32 0 2 0 C2.13535156 0.77601563 2.27070313 1.55203125 2.41015625 2.3515625 C4.74691787 14.07734836 8.83086546 24.9490526 18 33 C18 33.66 18 34.32 18 35 C9.84805464 33.52997707 1.73484357 26.73484357 -4 21 C-4 19.68 -4 18.36 -4 17 C-2.68 17 -1.36 17 0 17 C0.103125 17.598125 0.20625 18.19625 0.3125 18.8125 C1.08876455 21.28243264 2.07088921 22.32251235 4 24 C5.10844919 20.67465243 4.84454356 18.37817425 4 15 C3.34 15 2.68 15 2 15 C1.66223316 13.2508503 1.32996329 11.50063855 1 9.75 C0.814375 8.77546875 0.62875 7.8009375 0.4375 6.796875 C0 4 0 4 0 0 Z M-3 18 C-2 20 -2 20 -2 20 Z " fill="#F9E40F" transform="translate(138,213)"/>
<path d="M0 0 C4.68046154 0.64185066 8.99227665 1.88642003 13.4375 3.4375 C18.25883568 5.10054004 23.08592831 6.6367414 28 8 C28 8.66 28 9.32 28 10 C18.44349683 10.20166126 9.36085176 10.26439611 0 8 C0.66 5.69 1.32 3.38 2 1 C1.34 0.67 0.68 0.34 0 0 Z " fill="#FBE40C" transform="translate(228,163)"/>
<path d="M0 0 C-0.57112061 4.20344771 -1.99597906 6.96817364 -4.3125 10.5 C-5.20388672 11.87671875 -5.20388672 11.87671875 -6.11328125 13.28125 C-7.97655755 15.96621958 -9.84214264 18.54404688 -12 21 C-12.66 21 -13.32 21 -14 21 C-14 19.68 -14 18.36 -14 17 C-12.68 16.67 -11.36 16.34 -10 16 C-10 15.34 -10 14.68 -10 14 C-10.66 14 -11.32 14 -12 14 C-12 13.01 -12 12.02 -12 11 C-13.98 11.66 -15.96 12.32 -18 13 C-18 12.34 -18 11.68 -18 11 C-16.31874988 9.80457522 -14.57751917 8.69287157 -12.8125 7.625 C-9.79947527 5.79379086 -6.99990139 3.99991982 -4.26171875 1.7734375 C-2 0 -2 0 0 0 Z " fill="#FAE013" transform="translate(243,63)"/>
<path d="M0 0 C0.99 0.33 1.98 0.66 3 1 C1.48441862 4.9940027 -0.9078175 6.62037877 -4.375 9 C-7.22152282 10.96417747 -9.79189729 12.78970673 -12.2265625 15.25 C-14 17 -14 17 -16 17 C-15.39644592 13.14974121 -14.23227397 10.13898841 -12.4375 6.6875 C-11.98246094 5.80449219 -11.52742187 4.92148438 -11.05859375 4.01171875 C-10.53458984 3.01591797 -10.53458984 3.01591797 -10 2 C-8.68 2 -7.36 2 -6 2 C-6 2.66 -6 3.32 -6 4 C-4.35 3.67 -2.7 3.34 -1 3 C-0.67 2.01 -0.34 1.02 0 0 Z " fill="#FAB911" transform="translate(24,180)"/>
<path d="M0 0 C0 0.66 0 1.32 0 2 C0.721875 1.938125 1.44375 1.87625 2.1875 1.8125 C5.56199315 2.03746621 7.30593911 2.99869763 10 5 C10 5.66 10 6.32 10 7 C7.87752016 6.54518289 6.17329986 6.10461881 4.3046875 4.9765625 C1.1061164 3.62123576 -1.66483861 3.73555256 -5.125 3.75 C-6.98511719 3.74226562 -6.98511719 3.74226562 -8.8828125 3.734375 C-12.10100687 3.67132934 -12.10100687 3.67132934 -14 6 C-15.68761858 6.60311615 -17.40014476 7.13850237 -19.125 7.625 C-20.03507813 7.88539063 -20.94515625 8.14578125 -21.8828125 8.4140625 C-22.58148438 8.60742188 -23.28015625 8.80078125 -24 9 C-24 7.35 -24 5.7 -24 4 C-15.97331823 -0.1428035 -8.92981438 -0.46321804 0 0 Z " fill="#FCDF19" transform="translate(160,156)"/>
<path d="M0 0 C7.01516914 1.43492096 13.17947907 4.87789606 19 9 C19.33 9.99 19.66 10.98 20 12 C19 13 19 13 15.6875 13.3125 C12 13 12 13 9.5625 11.125 C8 9 8 9 8 7 C7.236875 6.71125 6.47375 6.4225 5.6875 6.125 C3 5 3 5 0 3 C0 2.01 0 1.02 0 0 Z " fill="#FAF3A3" transform="translate(173,152)"/>
<path d="M0 0 C0 0.66 0 1.32 0 2 C0.66 2 1.32 2 2 2 C2 2.66 2 3.32 2 4 C5.5862994 5.56900599 9.13894513 6.58413895 12.9296875 7.4921875 C15.97982222 8.24033375 18.98531944 9.12071817 22 10 C20 12 20 12 18.1171875 12.1171875 C12.28048334 11.4867421 8.11568617 9.88338675 3 7 C3 6.34 3 5.68 3 5 C2.071875 4.855625 1.14375 4.71125 0.1875 4.5625 C-3 4 -3 4 -6 3 C-6.33 2.34 -6.66 1.68 -7 1 C-7.99 0.67 -8.98 0.34 -10 0 C-10 -0.66 -10 -1.32 -10 -2 C-5.22071137 -3.13193678 -4.13321683 -2.75547789 0 0 Z " fill="#FBD754" transform="translate(86,92)"/>
<path d="M0 0 C7.0859041 3.02761357 13.45282919 10.22812846 17 17 C16.67 17.99 16.34 18.98 16 20 C11.2020202 15.45454545 11.2020202 15.45454545 10 12.75 C9.10950414 10.71387529 9.10950414 10.71387529 6.5 10.3125 C5.2625 10.1578125 5.2625 10.1578125 4 10 C3.34 9.67 2.68 9.34 2 9 C1.3671875 6.93359375 1.3671875 6.93359375 0.875 4.4375 C0.70742187 3.61121094 0.53984375 2.78492188 0.3671875 1.93359375 C0.24601562 1.29550781 0.12484375 0.65742187 0 0 Z " fill="#FAD548" transform="translate(66,126)"/>
<path d="M0 0 C2.15483503 1.43996085 4.12047082 2.90889035 6.03515625 4.65234375 C5.70515625 5.64234375 5.37515625 6.63234375 5.03515625 7.65234375 C5.03515625 6.99234375 5.03515625 6.33234375 5.03515625 5.65234375 C4.49890625 5.52859375 3.96265625 5.40484375 3.41015625 5.27734375 C0.57132765 4.53028359 -2.18707577 3.59931011 -4.96484375 2.65234375 C-4.96484375 1.99234375 -4.96484375 1.33234375 -4.96484375 0.65234375 C-13.15060975 0.99002115 -20.32010787 1.62081056 -27.96484375 4.65234375 C-27.63484375 3.66234375 -27.30484375 2.67234375 -26.96484375 1.65234375 C-18.89471156 -2.10444192 -8.32004531 -3.78183878 0 0 Z " fill="#FCE642" transform="translate(164.96484375,155.34765625)"/>
<path d="M0 0 C1.73546076 2.60319113 2.65175233 4.52267237 3.625 7.4375 C3.88539062 8.19933594 4.14578125 8.96117187 4.4140625 9.74609375 C5 12 5 12 5 16 C4.01 16 3.02 16 2 16 C0.31640625 13.98828125 0.31640625 13.98828125 -1.4375 11.3125 C-3.82799058 7.74195793 -6.24575058 4.3050993 -9 1 C-6.13275314 1.57344937 -5.1385485 1.8614515 -3 4 C-2.01 4 -1.02 4 0 4 C0 2.68 0 1.36 0 0 Z " fill="#F8D20D" transform="translate(98,175)"/>
<path d="M0 0 C3.16115776 1.36983503 3.9927092 1.9890638 6 5 C5.835 5.804375 5.67 6.60875 5.5 7.4375 C4.88921275 10.56778465 5.54365909 11.24913384 7 14 C7.36141955 16.32914823 7.69699525 18.66253478 8 21 C8.33 21.66 8.66 22.32 9 23 C8.01 23 7.02 23 6 23 C0.44419134 7.25512528 0.44419134 7.25512528 0 0 Z " fill="#FAC809" transform="translate(149,65)"/>
<path d="M0 0 C1.19882813 -0.00515625 2.39765625 -0.0103125 3.6328125 -0.015625 C6.65870687 0.2322796 8.33825761 0.65980328 10.875 2.25 C7.81343346 4.02669223 5.63463785 4.49050818 2.109375 4.4453125 C1.21992188 4.43886719 0.33046875 4.43242187 -0.5859375 4.42578125 C-1.50632813 4.40902344 -2.42671875 4.39226562 -3.375 4.375 C-4.31085938 4.36597656 -5.24671875 4.35695312 -6.2109375 4.34765625 C-8.51588657 4.32413636 -10.8203116 4.29126853 -13.125 4.25 C-13.125 3.59 -13.125 2.93 -13.125 2.25 C-8.60825636 0.50960337 -4.83208948 -0.02087296 0 0 Z " fill="#FBF4AC" transform="translate(157.125,146.75)"/>
<path d="M0 0 C4.30162267 4.30162267 3.18335195 11.2756967 3.1875 17 C3.19974609 17.88945313 3.21199219 18.77890625 3.22460938 19.6953125 C3.23479985 24.24705707 3.15511226 27.87404159 1 32 C0.67 32.721875 0.34 33.44375 0 34.1875 C-1 36 -1 36 -3 38 C-2.71125 36.72125 -2.4225 35.4425 -2.125 34.125 C-1.74956321 32.41676261 -1.37458773 30.70842378 -1 29 C-0.80921875 28.16082031 -0.6184375 27.32164063 -0.421875 26.45703125 C1.54062771 17.41550093 0.94057204 9.13698549 0 0 Z " fill="#F4B219" transform="translate(110,29)"/>
<path d="M0 0 C-0.33 1.32 -0.66 2.64 -1 4 C-0.34 4 0.32 4 1 4 C1.12375 4.5775 1.2475 5.155 1.375 5.75 C2.46148861 9.661359 3.99271977 12.26610888 7 15 C6.67 15.99 6.34 16.98 6 18 C6.99 18 7.98 18 9 18 C9.33 19.98 9.66 21.96 10 24 C9.34 24 8.68 24 8 24 C3.59227428 16.47905053 -0.66005709 9.0715287 -4 1 C-2 0 -2 0 0 0 Z " fill="#F8E007" transform="translate(123,206)"/>
<path d="M0 0 C3.387199 1.4388102 5.3594104 3.22119499 7.75 6 C8.67039063 7.051875 8.67039063 7.051875 9.609375 8.125 C11 10 11 10 11 12 C7.42959697 11.34097701 4.82267745 9.83770842 1.75 7.9375 C0.85796875 7.38964844 -0.0340625 6.84179688 -0.953125 6.27734375 C-1.96632812 5.64505859 -1.96632812 5.64505859 -3 5 C-2.34 4.67 -1.68 4.34 -1 4 C-0.34786708 1.97536745 -0.34786708 1.97536745 0 0 Z " fill="#FAE20C" transform="translate(145,236)"/>
<path d="M0 0 C4.29 0.33 8.58 0.66 13 1 C12.67 1.99 12.34 2.98 12 4 C12.66 4 13.32 4 14 4 C13.67 5.32 13.34 6.64 13 8 C8.71 6.02 4.42 4.04 0 2 C0 1.34 0 0.68 0 0 Z " fill="#F9E591" transform="translate(58,87)"/>
<path d="M0 0 C8 4 16 8 24 12 C23.34 12.66 22.68 13.32 22 14 C17.63389435 12.54463145 13.92141276 10.39641891 10 8 C9.34 8.66 8.68 9.32 8 10 C7.95875 9.401875 7.9175 8.80375 7.875 8.1875 C6.56734473 4.91836183 4.08012502 4.47589324 1 3 C0.67 2.01 0.34 1.02 0 0 Z " fill="#FAE60E" transform="translate(203,149)"/>
<path d="M0 0 C1.09828125 -0.020625 2.1965625 -0.04125 3.328125 -0.0625 C4.92140625 -0.07023438 4.92140625 -0.07023438 6.546875 -0.078125 C7.51979492 -0.0874707 8.49271484 -0.09681641 9.49511719 -0.10644531 C12.70511892 0.30888635 14.60818198 1.42660396 17.25 3.25 C16.26 3.745 16.26 3.745 15.25 4.25 C14.34556152 3.79197998 14.34556152 3.79197998 13.42285156 3.32470703 C10.9004849 2.07712747 9.28216775 2.01881836 6.484375 2.0546875 C5.59492188 2.06113281 4.70546875 2.06757813 3.7890625 2.07421875 C2.86867187 2.09097656 1.94828125 2.10773438 1 2.125 C-0.40378906 2.13853516 -0.40378906 2.13853516 -1.8359375 2.15234375 C-4.14088657 2.17586364 -6.4453116 2.20873147 -8.75 2.25 C-8.75 2.91 -8.75 3.57 -8.75 4.25 C-10.4 4.91 -12.05 5.57 -13.75 6.25 C-12.26239173 -2.0381032 -7.58337141 0.0351082 0 0 Z " fill="#FCEC6F" transform="translate(151.75,151.75)"/>
<path d="M0 0 C0.66 0 1.32 0 2 0 C2 0.66 2 1.32 2 2 C2.66 2 3.32 2 4 2 C4 2.66 4 3.32 4 4 C5.258125 4.144375 6.51625 4.28875 7.8125 4.4375 C10.42667123 4.73748686 12.47439892 5.15813297 15 6 C15 6.66 15 7.32 15 8 C19.62 7.67 24.24 7.34 29 7 C29 7.66 29 8.32 29 9 C11.14350797 9.738041 11.14350797 9.738041 3 5 C3 4.34 3 3.68 3 3 C1.68 2.67 0.36 2.34 -1 2 C-0.67 1.34 -0.34 0.68 0 0 Z " fill="#FCCA2E" transform="translate(83,89)"/>
<path d="M0 0 C3.43742918 -0.05802698 6.87473253 -0.09360486 10.3125 -0.125 C11.28896484 -0.14175781 12.26542969 -0.15851563 13.27148438 -0.17578125 C14.20927734 -0.18222656 15.14707031 -0.18867187 16.11328125 -0.1953125 C16.97735596 -0.20578613 17.84143066 -0.21625977 18.73168945 -0.22705078 C21 0 21 0 24 2 C15.86202273 3.03339394 8.09910608 3.66135509 0 2 C0 1.34 0 0.68 0 0 Z " fill="#F7B00B" transform="translate(6,87)"/>
<path d="M0 0 C6.82145667 1.47129458 10.060357 4.09053551 14 10 C14.66 9.67 15.32 9.34 16 9 C16.33 10.32 16.66 11.64 17 13 C15.02 12.34 13.04 11.68 11 11 C11 10.34 11 9.68 11 9 C10.46375 8.731875 9.9275 8.46375 9.375 8.1875 C8.59125 7.795625 7.8075 7.40375 7 7 C5.4221875 6.319375 5.4221875 6.319375 3.8125 5.625 C1 4 1 4 0.125 1.8125 C0.08375 1.214375 0.0425 0.61625 0 0 Z " fill="#F0BB1A" transform="translate(68,135)"/>
<path d="M0 0 C4.12751449 0.60698743 7.3321148 2.03810791 11 4 C11 4.99 11 5.98 11 7 C8.875 7.875 8.875 7.875 6 8 C3.64424838 6.30628631 1.72018294 4.33495622 0 2 C0 1.34 0 0.68 0 0 Z " fill="#FADB3E" transform="translate(95,9)"/>
<path d="M0 0 C1.98 0 3.96 0 6 0 C6 1.32 6 2.64 6 4 C6.66 4.33 7.32 4.66 8 5 C8.70151152 6.3153341 9.36525925 7.65117592 10 9 C11.35582985 11.03374477 12.73157418 13.05432749 14.125 15.0625 C16 18 16 18 16 20 C15.34 20 14.68 20 14 20 C12.87013678 18.37824382 11.82159687 16.69953157 10.8125 15 C7.98567702 10.40344331 4.95230844 6.41017832 1.28515625 2.4609375 C0 1 0 1 0 0 Z " fill="#EFBF0D" transform="translate(81,131)"/>
<path d="M0 0 C2.56616632 3.84924948 2.55097676 6.4349304 3 11 C-0.79379058 9.50958227 -2.68343758 7.30937488 -5 4 C-5 3.34 -5 2.68 -5 2 C-3.35 2 -1.7 2 0 2 C0 1.34 0 0.68 0 0 Z " fill="#F9F193" transform="translate(180,119)"/>
<path d="M0 0 C1.14662109 0.14888672 1.14662109 0.14888672 2.31640625 0.30078125 C4.4375 0.6875 4.4375 0.6875 7.4375 1.6875 C7.4375 2.3475 7.4375 3.0075 7.4375 3.6875 C2.1575 3.6875 -3.1225 3.6875 -8.5625 3.6875 C-8.5625 3.0275 -8.5625 2.3675 -8.5625 1.6875 C-5.45674795 -0.15897218 -3.56447682 -0.50059488 0 0 Z " fill="#FBEC1A" transform="translate(248.5625,169.3125)"/>
<path d="M0 0 C0.66 0 1.32 0 2 0 C3.2890625 1.6796875 3.2890625 1.6796875 4.625 3.875 C5.29402344 4.95394531 5.29402344 4.95394531 5.9765625 6.0546875 C7 8 7 8 7 10 C6.34 10 5.68 10 5 10 C5 10.66 5 11.32 5 12 C4.01 12 3.02 12 2 12 C1.66430703 10.37548581 1.3315204 8.75037083 1 7.125 C0.814375 6.22007813 0.62875 5.31515625 0.4375 4.3828125 C0 2 0 2 0 0 Z " fill="#FAD10A" transform="translate(155,105)"/>
<path d="M0 0 C-0.53115106 4.51478398 -2.36620292 7.34666857 -5 11 C-5.33 10.01 -5.66 9.02 -6 8 C-6.66 8 -7.32 8 -8 8 C-7.65978036 4.82461668 -6.97533396 3.97723135 -4.5625 1.75 C-2 0 -2 0 0 0 Z " fill="#F8E843" transform="translate(243,63)"/>
<path d="M0 0 C2.97 0.495 2.97 0.495 6 1 C5.07038578 2.15224028 4.1309875 3.29659176 3.1875 4.4375 C2.40439453 5.39462891 2.40439453 5.39462891 1.60546875 6.37109375 C0 8 0 8 -3 9 C-2.44271087 5.65626525 -1.64826111 2.96687001 0 0 Z " fill="#F9D44F" transform="translate(11,188)"/>
<path d="M0 0 C4.125 0.6875 8.25 1.375 12.375 2.0625 C13.96441406 2.32740234 13.96441406 2.32740234 15.5859375 2.59765625 C16.38257812 2.73042969 17.17921875 2.86320312 18 3 C18 3.99 18 4.98 18 6 C10.99995111 5.71311275 6.08973134 4.49595688 0 1 C0 0.67 0 0.34 0 0 Z " fill="#FBDD64" transform="translate(89,98)"/>
<path d="M0 0 C0 0.99 0 1.98 0 3 C0.66 3 1.32 3 2 3 C2 3.99 2 4.98 2 6 C-0.31 5.67 -2.62 5.34 -5 5 C-5 4.34 -5 3.68 -5 3 C-5.66 3 -6.32 3 -7 3 C-7 2.01 -7 1.02 -7 0 C-3.86650268 -1.04449911 -3.01031744 -0.93423645 0 0 Z " fill="#FCC21A" transform="translate(92,88)"/>
<path d="M0 0 C0.99 0 1.98 0 3 0 C3 0.66 3 1.32 3 2 C4.98 2 6.96 2 9 2 C9.33 1.34 9.66 0.68 10 0 C10 1.98 10 3.96 10 6 C8.02 6.33 6.04 6.66 4 7 C2.02 3.535 2.02 3.535 0 0 Z " fill="#F9E75E" transform="translate(170,115)"/>
<path d="M0 0 C1.32 0.66 2.64 1.32 4 2 C4 2.66 4 3.32 4 4 C2.9171875 4.309375 2.9171875 4.309375 1.8125 4.625 C-0.94750232 5.97433447 -1.84521014 6.80020565 -3.6875 9.125 C-4.8321875 10.548125 -4.8321875 10.548125 -6 12 C-6.66 12 -7.32 12 -8 12 C-8.33 11.01 -8.66 10.02 -9 9 C-8.51789063 8.60167969 -8.03578125 8.20335938 -7.5390625 7.79296875 C-6.90742187 7.26316406 -6.27578125 6.73335938 -5.625 6.1875 C-4.99851562 5.66542969 -4.37203125 5.14335938 -3.7265625 4.60546875 C-1.7778952 2.91774261 -1.7778952 2.91774261 0 0 Z " fill="#F8B607" transform="translate(101,76)"/>
<path d="M0 0 C5.66666667 0 11.33333333 0 17 0 C16.67 0.99 16.34 1.98 16 3 C11.71 3 7.42 3 3 3 C3 2.34 3 1.68 3 1 C2.01 0.67 1.02 0.34 0 0 Z " fill="#FDC317" transform="translate(95,94)"/>
<path d="M0 0 C6.56351224 1.84598782 11.3373347 7.26493307 16 12 C15.67 12.99 15.34 13.98 15 15 C14.54109375 14.44570313 14.0821875 13.89140625 13.609375 13.3203125 C12.99578125 12.59585937 12.3821875 11.87140625 11.75 11.125 C11.14671875 10.40570313 10.5434375 9.68640625 9.921875 8.9453125 C8.1251982 6.91439111 8.1251982 6.91439111 5.828125 5.9296875 C4 5 4 5 3 2 C2.01 2 1.02 2 0 2 C0 1.34 0 0.68 0 0 Z " fill="#F6BC0E" transform="translate(109,16)"/>
<path d="M0 0 C0 0.33 0 0.66 0 1 C-0.79664063 1.03738281 -1.59328125 1.07476562 -2.4140625 1.11328125 C-8.41628186 1.48568172 -12.6674141 2.07977439 -18 5 C-21.375 5.1875 -21.375 5.1875 -24 5 C-17.55309775 -1.44690225 -8.42055168 -0.31931867 0 0 Z " fill="#FDE32C" transform="translate(160,156)"/>
<path d="M0 0 C3.81684226 1.55500981 6.19195732 4.03595495 9 7 C8.67 7.66 8.34 8.32 8 9 C3.15544041 7.41450777 3.15544041 7.41450777 1 6 C0.0625 2.8125 0.0625 2.8125 0 0 Z " fill="#F8E277" transform="translate(66,126)"/>
<path d="M0 0 C3.16115776 1.36983503 3.9927092 1.9890638 6 5 C6 5.99 6 6.98 6 8 C4.68 8.33 3.36 8.66 2 9 C0 3.375 0 3.375 0 0 Z " fill="#F8CC1B" transform="translate(149,65)"/>
<path d="M0 0 C3.16532451 1.58266225 3.58369064 4.76444118 4.6875 7.9375 C4.92533203 8.58396484 5.16316406 9.23042969 5.40820312 9.89648438 C6.00302158 11.5762796 6.50797995 13.28727198 7 15 C6.67 15.66 6.34 16.32 6 17 C1.26551091 11.41573082 0.16106115 7.2770354 0 0 Z " fill="#F8D910" transform="translate(119,167)"/>
<path d="M0 0 C5.05506114 1.29315518 7.44448547 3.25735313 11 7 C11.7425 7.350625 12.485 7.70125 13.25 8.0625 C13.8275 8.371875 14.405 8.68125 15 9 C15.609375 11.05859375 15.609375 11.05859375 16 13 C14.10353819 11.57765365 12.20733689 10.15498005 10.3125 8.73046875 C8.77581566 7.58055124 7.23415191 6.4372569 5.6875 5.30078125 C4.965625 4.76839844 4.24375 4.23601562 3.5 3.6875 C2.8296875 3.19636719 2.159375 2.70523438 1.46875 2.19921875 C0.9840625 1.80347656 0.499375 1.40773438 0 1 C0 0.67 0 0.34 0 0 Z " fill="#F7B10A" transform="translate(64,117)"/>
<path d="M0 0 C2 1 2 1 3.125 3.8125 C4 7 4 7 4 11 C3.01 11 2.02 11 1 11 C-1.78637633 6.8204355 -0.79562512 4.85331323 0 0 Z " fill="#F8D51C" transform="translate(99,180)"/>
<path d="M0 0 C3.88397689 1.55002747 6.02979619 4.00476621 8.75 7.125 C9.94882813 8.49011719 9.94882813 8.49011719 11.171875 9.8828125 C12.07679688 10.93082031 12.07679688 10.93082031 13 12 C12.01 12.495 12.01 12.495 11 13 C8 11 8 11 6.5 8.9375 C5.06478079 6.71239348 5.06478079 6.71239348 2 6 C1.375 4.0625 1.375 4.0625 1 2 C0.67 1.34 0.34 0.68 0 0 Z " fill="#F9DB0F" transform="translate(162,116)"/>
<path d="M0 0 C2.31 0.33 4.62 0.66 7 1 C7.33 1.99 7.66 2.98 8 4 C6.3125 5.125 6.3125 5.125 4 6 C1.25 5.125 1.25 5.125 -1 4 C-0.67 2.68 -0.34 1.36 0 0 Z " fill="#F9C228" transform="translate(13,184)"/>
<path d="M0 0 C3.3 0.33 6.6 0.66 10 1 C10 1.33 10 1.66 10 2 C7.69 2 5.38 2 3 2 C3 2.99 3 3.98 3 5 C3.66 5.33 4.32 5.66 5 6 C4.67 6.66 4.34 7.32 4 8 C3.01 7.67 2.02 7.34 1 7 C1 5.68 1 4.36 1 3 C0.34 3 -0.32 3 -1 3 C-0.67 2.01 -0.34 1.02 0 0 Z " fill="#FAE57F" transform="translate(71,88)"/>
<path d="M0 0 C1.5 1.375 1.5 1.375 3 3 C3 3.66 3 4.32 3 5 C3.66 5.33 4.32 5.66 5 6 C5.8515625 7.84765625 5.8515625 7.84765625 6.625 10.0625 C6.88539062 10.79597656 7.14578125 11.52945313 7.4140625 12.28515625 C7.60742188 12.85105469 7.80078125 13.41695312 8 14 C7.01 14 6.02 14 5 14 C4.16235732 12.04350603 3.33000941 10.08474444 2.5 8.125 C2.0359375 7.03445312 1.571875 5.94390625 1.09375 4.8203125 C0 2 0 2 0 0 Z " fill="#FADA0B" transform="translate(113,192)"/>
<path d="M0 0 C0.144375 0.598125 0.28875 1.19625 0.4375 1.8125 C0.8872439 3.56150404 1.42892341 5.28677023 2 7 C2.66 7 3.32 7 4 7 C4.33 8.65 4.66 10.3 5 12 C4.34 12 3.68 12 3 12 C1.4921875 10.1015625 1.4921875 10.1015625 -0.125 7.625 C-0.66382812 6.81289063 -1.20265625 6.00078125 -1.7578125 5.1640625 C-3 3 -3 3 -3 1 C-2.01 0.67 -1.02 0.34 0 0 Z " fill="#F4BB12" transform="translate(105,16)"/>
<path d="M0 0 C6.64615385 1.47692308 6.64615385 1.47692308 8.4375 4.125 C8.7159375 5.053125 8.7159375 5.053125 9 6 C6.23723823 5.47731534 3.6739124 4.89130413 1 4 C0.3125 1.9375 0.3125 1.9375 0 0 Z " fill="#FBC71D" transform="translate(68,135)"/>
<path d="M0 0 C1.98 0 3.96 0 6 0 C6 1.32 6 2.64 6 4 C6.66 4.33 7.32 4.66 8 5 C7.67 5.99 7.34 6.98 7 8 C4.35247996 5.42215154 2.05567935 3.08351902 0 0 Z " fill="#F7B907" transform="translate(81,131)"/>
<path d="M0 0 C0.99 0.66 1.98 1.32 3 2 C-0.18181818 10.18181818 -0.18181818 10.18181818 -3 13 C-2.68817931 11.58318366 -2.37551263 10.16655349 -2.0625 8.75 C-1.88847656 7.96109375 -1.71445313 7.1721875 -1.53515625 6.359375 C-1.052444 4.23121297 -0.53836822 2.11467158 0 0 Z " fill="#F8AF06" transform="translate(110,54)"/>
<path d="M0 0 C1.1725131 0.95117134 2.33787015 1.91117009 3.5 2.875 C4.47453125 3.67550781 4.47453125 3.67550781 5.46875 4.4921875 C5.9740625 4.98976562 6.479375 5.48734375 7 6 C7 6.66 7 7.32 7 8 C4.83125748 7.49396008 3.00032373 7.00016187 1 6 C0.375 2.9375 0.375 2.9375 0 0 Z " fill="#F6EA3C" transform="translate(149,240)"/>
<path d="M0 0 C0.99 0.33 1.98 0.66 3 1 C1.88424427 4.34726719 1.48655378 4.62079748 -1.4375 6.25 C-3.2009375 7.11625 -3.2009375 7.11625 -5 8 C-5.66 7.67 -6.32 7.34 -7 7 C-5.47005208 5.76302083 -3.94010417 4.52604167 -2.41015625 3.2890625 C-0.86733563 2.0333609 -0.86733563 2.0333609 0 0 Z " fill="#F7B40E" transform="translate(36,173)"/>
<path d="M0 0 C0.66 0.33 1.32 0.66 2 1 C-0.02882906 3.94180214 -2.05819786 5.97117094 -5 8 C-5.66 7.34 -6.32 6.68 -7 6 C-4.69 4.02 -2.38 2.04 0 0 Z " fill="#F7AE08" transform="translate(31,163)"/>
<path d="M0 0 C1.32 0 2.64 0 4 0 C4.33 1.32 4.66 2.64 5 4 C2.03 4 -0.94 4 -4 4 C-2.68 3.67 -1.36 3.34 0 3 C0 2.01 0 1.02 0 0 Z " fill="#FCE74C" transform="translate(171,160)"/>
<path d="M0 0 C0.33 0.66 0.66 1.32 1 2 C0.2575 1.9175 -0.485 1.835 -1.25 1.75 C-4.78157027 2.07105184 -5.76630364 3.35265617 -8 6 C-7.67 4.02 -7.34 2.04 -7 0 C-3.88407501 -1.03864166 -2.9737344 -1.09036928 0 0 Z " fill="#F4B70E" transform="translate(126,69)"/>
<path d="M0 0 C3.34726719 1.11575573 3.62079748 1.51344622 5.25 4.4375 C5.8275 5.613125 6.405 6.78875 7 8 C6.67 8.66 6.34 9.32 6 10 C5.67 9.01 5.34 8.02 5 7 C4.01 7.33 3.02 7.66 2 8 C1.855625 7.05125 1.71125 6.1025 1.5625 5.125 C1.17064601 2.1065506 1.17064601 2.1065506 0 0 Z " fill="#F6C30E" transform="translate(102,133)"/>
<path d="M0 0 C2 2 2 2 2.125 4.625 C2.08375 5.40875 2.0425 6.1925 2 7 C0.0625 6.1875 0.0625 6.1875 -2 5 C-2.33 4.01 -2.66 3.02 -3 2 C-2.01 2 -1.02 2 0 2 C0 1.34 0 0.68 0 0 Z " fill="#F9F5A7" transform="translate(181,123)"/>
<path d="M0 0 C-0.75 4.75 -0.75 4.75 -3 7 C-3.66 6.34 -4.32 5.68 -5 5 C-5 4.01 -5 3.02 -5 2 C-2 0 -2 0 0 0 Z " fill="#F9EF6B" transform="translate(243,63)"/>
<path d="M0 0 C3.2542015 2.83430453 4.5206753 4.68607774 5 9 C3.02 7.35 1.04 5.7 -1 4 C-0.67 2.68 -0.34 1.36 0 0 Z " fill="#F7D134" transform="translate(78,137)"/>
<path d="M0 0 C2.99324263 1.0975223 3.84610901 1.67682892 5.25 4.625 C5.4975 5.40875 5.745 6.1925 6 7 C4.66666667 7 3.33333333 7 2 7 C1.34 4.69 0.68 2.38 0 0 Z " fill="#F8C111" transform="translate(95,124)"/>
<path d="M0 0 C1.25541557 3.76624671 0.37061958 5.37188934 -1 9 C-1.99 8.67 -2.98 8.34 -4 8 C-4 7.34 -4 6.68 -4 6 C-3.34 6 -2.68 6 -2 6 C-1.34 4.02 -0.68 2.04 0 0 Z " fill="#F2B10E" transform="translate(114,86)"/>
<path d="M0 0 C0.99 0.33 1.98 0.66 3 1 C4.1875 4.5625 4.1875 4.5625 5 8 C4.01 7.67 3.02 7.34 2 7 C2 5.35 2 3.7 2 2 C1.01 1.67 0.02 1.34 -1 1 C-0.67 0.67 -0.34 0.34 0 0 Z " fill="#F3B70B" transform="translate(134,50)"/>
</svg>
